<svg width="28" height="20" viewBox="0 0 28 20" fill="none" xmlns="http://www.w3.org/2000/svg">
<path d="M27.3619 1.35625C27.5542 0.575 27.3619 0 26.4366 0H23.3751C22.5954 0 22.2367 0.49375 22.0444 1.04375C22.0444 1.04375 20.485 5.6125 18.2811 8.575C17.569 9.43125 17.2415 9.70625 16.8517 9.70625C16.6593 9.70625 16.3631 9.43125 16.3631 8.65V1.35625C16.3631 0.41875 16.1447 0 15.5002 0H10.6869C10.1983 0 9.90724 0.4375 9.90724 0.84375C9.90724 1.73125 11.0092 1.9375 11.1236 4.4375V9.8625C11.1236 11.05 10.9468 11.2687 10.557 11.2687C9.5174 11.2687 6.99121 6.68125 5.4942 1.43125C5.19272 0.4125 4.89644 0 4.11156 0H1.04998C0.176729 0 0 0.49375 0 1.04375C0 2.01875 1.03958 6.8625 4.83927 13.2625C7.37065 17.6313 10.9364 20 14.1799 20C16.1292 20 16.3683 19.475 16.3683 18.5688C16.3683 14.3938 16.1915 14 17.1687 14C17.621 14 18.4006 14.275 20.2199 16.3813C22.2991 18.8813 22.6422 20 23.8065 20H26.8681C27.7413 20 28.1831 19.475 27.9284 18.4375C27.3463 16.2563 23.4114 11.7688 23.2347 11.4688C22.7825 10.7688 22.9124 10.4563 23.2347 9.83125C23.2399 9.825 26.9772 3.5 27.3619 1.35625Z" fill="#333333"/>
</svg>
