<svg width="295" height="49" viewBox="0 0 295 49" fill="none" xmlns="http://www.w3.org/2000/svg">
<path d="M158.935 27.9563L170.329 13.6501C170.462 13.4751 170.949 12.8188 170.949 12.8188L171.57 11.9875H165.585L165.407 12.2063C165.407 12.2063 165.319 12.3376 165.275 12.3813L155.255 24.6313L145.502 12.3813L145.191 11.9875H139.384L140.005 12.8188C140.005 12.8188 140.492 13.4751 140.625 13.6501L151.975 28.0876L140.138 43.0502C140.005 43.225 139.473 43.8812 139.473 43.8812L138.763 44.7562H144.837L155.433 31.4126L165.629 44.3189L165.939 44.7562H172.191L158.935 27.9563Z" fill="#0082CA"/>
<path d="M294.728 0.043335H289.763V45.456H294.728V0.043335Z" fill="#0082CA"/>
<path d="M206.15 44.6251L206.106 11.8125H201.229V16.1875C198.037 12.9062 193.516 10.85 188.55 10.85C178.841 10.85 170.994 18.5937 170.994 28.175C170.994 37.7562 178.841 45.5002 188.55 45.5002C193.56 45.5002 198.082 43.4438 201.274 40.1187V44.6251H206.15ZM188.55 40.6875C181.545 40.6875 175.871 35.0875 175.871 28.175C175.871 21.2625 181.545 15.6625 188.55 15.6625C195.555 15.6625 201.229 21.2625 201.229 28.175C201.185 35.0875 195.555 40.6875 188.55 40.6875Z" fill="#0082CA"/>
<path d="M246.095 44.6251L246.051 0H241.174V16.1875C237.982 12.9062 233.46 10.85 228.495 10.85C218.785 10.85 210.938 18.5937 210.938 28.175C210.938 37.7563 218.785 45.5002 228.495 45.5002C233.504 45.5002 238.026 43.4438 241.218 40.1188V44.6251H246.095ZM228.495 40.6875C221.49 40.6875 215.815 35.0875 215.815 28.175C215.815 21.2625 221.49 15.6625 228.495 15.6625C235.499 15.6625 241.174 21.2625 241.174 28.175C241.129 35.0875 235.455 40.6875 228.495 40.6875Z" fill="#0082CA"/>
<path d="M134.817 29.4001C134.285 35.6563 129.054 40.6876 122.537 40.8628C118.148 40.9938 114.202 38.8938 111.853 35.6126L134.153 24.325L138.541 22.0938C135.926 15.4438 129.276 10.8063 121.65 11.0251C111.986 11.2876 104.361 19.2501 104.626 28.8313C104.893 38.4126 113.005 45.9375 122.67 45.675C132.379 45.4124 140.005 37.4063 139.738 27.8688C139.738 27.5626 139.694 27.2563 139.694 26.9501L134.817 29.4001ZM109.503 28.7001C109.281 21.7876 114.823 16.0563 121.828 15.8376C125.773 15.7063 129.32 17.4126 131.714 20.1251L109.813 31.1938C109.636 30.3626 109.548 29.5313 109.503 28.7001Z" fill="#0082CA"/>
<path d="M280.763 29.2249C280.231 35.4812 275 40.5124 268.483 40.6874C264.094 40.8187 260.148 38.7187 257.798 35.4375L280.098 24.1499L284.487 21.9187C281.871 15.2687 275.221 10.6312 267.596 10.85C257.887 11.1124 250.262 19.1187 250.528 28.6562C250.794 38.2374 258.907 45.7623 268.571 45.4998C278.28 45.2376 285.906 37.2312 285.64 27.6937C285.64 27.3874 285.595 27.0812 285.595 26.7749L280.763 29.2249ZM255.493 28.5687C255.271 21.6562 260.813 15.925 267.818 15.7062C271.763 15.5749 275.31 17.2812 277.704 19.9937L255.803 31.0624C255.626 30.2312 255.493 29.4 255.493 28.5687Z" fill="#0082CA"/>
<path d="M87.2941 13.9632L80.6335 17.7947C81.4521 19.2316 81.9357 20.7789 82.01 22.3631C82.01 22.5105 82.01 22.6211 82.01 22.7684C82.01 24.1684 81.6754 25.5684 81.0799 26.8579C77.3588 34.7789 63.145 40.7105 46.1773 40.7105C44.1307 40.7105 42.1216 40.6368 40.1493 40.4526C33.5632 39.9 27.6096 38.4263 22.7723 36.3631L79.1823 7.66315C70.7729 2.94737 58.9775 0 45.8794 0C20.5398 0 0 10.9789 0 24.5C0 30.3579 3.8326 35.7368 10.2699 39.9368C10.828 40.3053 11.4234 40.6737 12.0187 41.0052C12.7629 41.4475 13.5071 41.8525 14.2885 42.258C16.856 43.5475 19.6839 44.6896 22.7351 45.6472C24.2235 46.1262 25.7863 46.5316 27.3863 46.8999C27.684 46.9739 27.9817 47.0474 28.2794 47.1208C33.712 48.3369 39.6283 49 45.8794 49C50.7913 49 55.5168 48.5949 59.9447 47.8211C68.6148 46.3475 76.1309 43.5104 81.7125 39.7895C81.8243 39.7158 81.9357 39.6421 82.01 39.5684C84.0566 38.1684 85.8429 36.6579 87.2941 35.0368C87.852 34.4105 88.336 33.7842 88.8196 33.1579C90.0101 31.5 90.8663 29.7316 91.3499 27.8895C91.6474 26.7842 91.7963 25.6421 91.7963 24.5C91.7963 24.2421 91.7963 23.9474 91.7592 23.6895C91.7221 23.2474 91.6845 22.7684 91.6102 22.3263C91.536 21.921 91.4613 21.5158 91.3499 21.1105C90.8663 19.2684 90.0101 17.5 88.8196 15.8053C88.2985 15.1789 87.8149 14.5526 87.2941 13.9632ZM14.2885 30.9842C11.7211 28.5158 10.2699 25.7158 10.2699 22.7316C10.2699 22.5842 10.2699 22.4737 10.2699 22.3263C10.7164 12.6 26.5677 4.75263 46.1026 4.75263C53.1726 4.75263 59.7586 5.7842 65.3402 7.55262V7.58949L14.2885 30.9842Z" fill="#0082CA"/>
</svg>
